<?xml version="1.0" encoding="utf-8"?>
<!-- Generator: Adobe Illustrator 27.5.0, SVG Export Plug-In . SVG Version: 6.00 Build 0)  -->
<svg version="1.1" xmlns="http://www.w3.org/2000/svg" xmlns:xlink="http://www.w3.org/1999/xlink" x="0px" y="0px"
	 viewBox="0 0 500 500" style="enable-background:new 0 0 500 500;" xml:space="preserve">
<g id="Background_Simple">
	<g>
		<path style="fill:#8b3dff;" d="M405.013,183.318c0,0-24.441-47.504-78.413-54.542c-53.973-7.038-91.652,27.271-131.368,44.865
			c-20.799,9.214-44.554,5.635-66.635,10.095c-70.601,14.26-97.196,103.602-67.788,154.41
			c25.459,43.985,70.266,66.858,138.496,72.136s116.092,11.436,177.194-31.669C437.6,335.507,433.527,245.777,405.013,183.318z"/>
		<path style="opacity:0.8;fill:#FFFFFF;" d="M405.013,183.318c0,0-24.441-47.504-78.413-54.542
			c-53.973-7.038-91.652,27.271-131.368,44.865c-20.799,9.214-44.554,5.635-66.635,10.095
			c-70.601,14.26-97.196,103.602-67.788,154.41c25.459,43.985,70.266,66.858,138.496,72.136s116.092,11.436,177.194-31.669
			C437.6,335.507,433.527,245.777,405.013,183.318z"/>
	</g>
</g>
<g id="Ground">
	<g>
		<ellipse style="fill:#8b3dff;" cx="232.359" cy="430.66" rx="150.359" ry="9.845"/>
		<ellipse style="opacity:0.5;fill:#FFFFFF;" cx="232.359" cy="430.66" rx="150.359" ry="9.845"/>
	</g>
</g>
<g id="Plants">
	<g>
		<g>
			<g>
				<path style="fill:#8b3dff;" d="M336.816,297.54c-2.807,6.925-5.684,1.356-5.228-27.677c0.214-13.607,1.171-41.409,16.22-35.29
					c14.459,5.879-4.595,46.986-4.595,46.986L336.816,297.54z M357.484,301.657c0,0,31.371-32.691,19.605-42.947
					c-12.246-10.675-22.181,15.309-26.802,28.109c-9.86,27.311-8.947,33.513-4.044,27.874L357.484,301.657z M364.099,330.996
					c0,0,28.722-20.448,21.212-29.994c-7.816-9.936-19.177,8.491-24.565,17.607c-11.496,19.452-11.697,24.326-7.131,20.726
					L364.099,330.996z M371.874,360.247c0,0,28.722-20.448,21.213-29.994c-7.816-9.936-19.177,8.49-24.565,17.607
					c-11.496,19.452-11.697,24.326-7.131,20.726L371.874,360.247z M321.714,301.435c0,0-40.19-20.919-46.726-6.745
					c-6.803,14.753,20.926,16.985,34.509,17.822c28.981,1.787,34.677-0.832,27.887-3.953L321.714,301.435z M327.374,324.464
					c0,0-43.546-12.513-47.134,2.678c-3.735,15.811,23.885,12.486,37.363,10.607c28.758-4.01,33.819-7.708,26.545-9.418
					L327.374,324.464z M337.342,349.57c0,0-37.115-9.574-39.798,3.355c-2.793,13.457,20.487,10.006,31.841,8.105
					c24.227-4.056,28.421-7.301,22.23-8.579L337.342,349.57z M343.151,370.297c0,0-35.889-13.459-39.929-0.888
					c-4.205,13.085,19.309,12.124,30.801,11.439c24.52-1.462,29.036-4.243,23.015-6.17L343.151,370.297z M319.122,265.297
					c0,0-16.385-50.918-34.983-41.669c-19.357,9.626,3.008,32.588,14.196,43.58c23.87,23.454,31.254,25.101,28.112,16.911
					L319.122,265.297z"/>
				<path style="opacity:0.65;fill:#FFFFFF;" d="M336.816,297.54c-2.807,6.925-5.684,1.356-5.228-27.677
					c0.214-13.607,1.171-41.409,16.22-35.29c14.459,5.879-4.595,46.986-4.595,46.986L336.816,297.54z M357.484,301.657
					c0,0,31.371-32.691,19.605-42.947c-12.246-10.675-22.181,15.309-26.802,28.109c-9.86,27.311-8.947,33.513-4.044,27.874
					L357.484,301.657z M364.099,330.996c0,0,28.722-20.448,21.212-29.994c-7.816-9.936-19.177,8.491-24.565,17.607
					c-11.496,19.452-11.697,24.326-7.131,20.726L364.099,330.996z M371.874,360.247c0,0,28.722-20.448,21.213-29.994
					c-7.816-9.936-19.177,8.49-24.565,17.607c-11.496,19.452-11.697,24.326-7.131,20.726L371.874,360.247z M321.714,301.435
					c0,0-40.19-20.919-46.726-6.745c-6.803,14.753,20.926,16.985,34.509,17.822c28.981,1.787,34.677-0.832,27.887-3.953
					L321.714,301.435z M327.374,324.464c0,0-43.546-12.513-47.134,2.678c-3.735,15.811,23.885,12.486,37.363,10.607
					c28.758-4.01,33.819-7.708,26.545-9.418L327.374,324.464z M337.342,349.57c0,0-37.115-9.574-39.798,3.355
					c-2.793,13.457,20.487,10.006,31.841,8.105c24.227-4.056,28.421-7.301,22.23-8.579L337.342,349.57z M343.151,370.297
					c0,0-35.889-13.459-39.929-0.888c-4.205,13.085,19.309,12.124,30.801,11.439c24.52-1.462,29.036-4.243,23.015-6.17
					L343.151,370.297z M319.122,265.297c0,0-16.385-50.918-34.983-41.669c-19.357,9.626,3.008,32.588,14.196,43.58
					c23.87,23.454,31.254,25.101,28.112,16.911L319.122,265.297z"/>
				
					<path style="fill:none;stroke:#CCCCCC;stroke-width:1.252;stroke-linecap:round;stroke-linejoin:round;stroke-miterlimit:10;" d="
					M291.921,241.771c0,0,41.148,50.204,50.994,75.336c11.311,28.874,18.837,62.135,20.364,89.074"/>
				
					<line style="fill:none;stroke:#CCCCCC;stroke-width:1.252;stroke-linecap:round;stroke-linejoin:round;stroke-miterlimit:10;" x1="334.723" y1="300.712" x2="340.445" y2="252.836"/>
				
					<line style="fill:none;stroke:#CCCCCC;stroke-width:1.252;stroke-linecap:round;stroke-linejoin:round;stroke-miterlimit:10;" x1="342.914" y1="317.107" x2="363.614" y2="276.866"/>
				
					<line style="fill:none;stroke:#CCCCCC;stroke-width:1.252;stroke-linecap:round;stroke-linejoin:round;stroke-miterlimit:10;" x1="339.892" y1="311.142" x2="296.539" y2="302.312"/>
				
					<line style="fill:none;stroke:#CCCCCC;stroke-width:1.252;stroke-linecap:round;stroke-linejoin:round;stroke-miterlimit:10;" x1="351.059" y1="339.939" x2="376.549" y2="310.898"/>
				
					<line style="fill:none;stroke:#CCCCCC;stroke-width:1.252;stroke-linecap:round;stroke-linejoin:round;stroke-miterlimit:10;" x1="347.497" y1="330.373" x2="314.77" y2="330.089"/>
				
					<line style="fill:none;stroke:#CCCCCC;stroke-width:1.252;stroke-linecap:round;stroke-linejoin:round;stroke-miterlimit:10;" x1="353.798" y1="354.134" x2="328.699" y2="355.127"/>
				
					<line style="fill:none;stroke:#CCCCCC;stroke-width:1.252;stroke-linecap:round;stroke-linejoin:round;stroke-miterlimit:10;" x1="358.955" y1="369.298" x2="372.396" y2="351.381"/>
				
					<line style="fill:none;stroke:#CCCCCC;stroke-width:1.252;stroke-linecap:round;stroke-linejoin:round;stroke-miterlimit:10;" x1="359.937" y1="375.96" x2="330.581" y2="374.5"/>
			</g>
		</g>
		<g>
			<g>
				<path style="fill:#8b3dff;" d="M415.958,337.193c-5.063,1.911-3.515-2.357,12.152-16.385
					c7.343-6.574,22.602-19.731,26.745-8.718c3.98,10.581-27.252,20.651-27.252,20.651L415.958,337.193z M423.927,350.21
					c0,0,32.809,0.619,32.482-10.681c-0.341-11.761-19.046-4.274-28.126-0.441c-19.374,8.18-22.224,11.713-16.815,11.55
					L423.927,350.21z M411.572,368.15c0,0,24.995,5.227,26.382-3.46c1.443-9.041-13.943-6.027-21.44-4.412
					c-15.998,3.446-18.689,5.735-14.53,6.394L411.572,368.15z M399.834,386.664c0,0,24.995,5.227,26.382-3.459
					c1.443-9.042-13.943-6.028-21.44-4.413c-15.998,3.446-18.689,5.735-14.529,6.394L399.834,386.664z M406.463,331.075
					c0,0-8.627-31.66-19.38-28.17c-11.191,3.633,1.251,19.48,7.482,27.116c13.295,16.294,17.487,18.036,15.81,12.891
					L406.463,331.075z M396.995,345.404c0,0-14.749-29.314-24.592-23.756c-10.246,5.785,5.099,18.842,12.723,25.088
					c16.268,13.326,20.724,14.201,18.057,9.491L396.995,345.404z M388.54,363.047c0,0-13.15-24.448-21.346-19.521
					c-8.531,5.129,4.748,15.816,11.34,20.922c14.066,10.893,17.854,11.529,15.49,7.608L388.54,363.047z M380.37,376.325
					c0,0-10.481-25.706-19.154-21.676c-9.027,4.195,3.042,16.231,9.055,22.007c12.83,12.325,16.529,13.359,14.595,9.21
					L380.37,376.325z M424.412,311.933c0,0,19.031-33.743,4.97-39.09c-14.635-5.565-15.856,17.618-16.204,28.972
					c-0.743,24.226,2.01,28.963,4.822,23.266L424.412,311.933z"/>
				<path style="opacity:0.65;fill:#E5E5E5;" d="M415.958,337.193c-5.063,1.911-3.515-2.357,12.152-16.385
					c7.343-6.574,22.602-19.731,26.745-8.718c3.98,10.581-27.252,20.651-27.252,20.651L415.958,337.193z M423.927,350.21
					c0,0,32.809,0.619,32.482-10.681c-0.341-11.761-19.046-4.274-28.126-0.441c-19.374,8.18-22.224,11.713-16.815,11.55
					L423.927,350.21z M411.572,368.15c0,0,24.995,5.227,26.382-3.46c1.443-9.041-13.943-6.027-21.44-4.412
					c-15.998,3.446-18.689,5.735-14.53,6.394L411.572,368.15z M399.834,386.664c0,0,24.995,5.227,26.382-3.459
					c1.443-9.042-13.943-6.028-21.44-4.413c-15.998,3.446-18.689,5.735-14.529,6.394L399.834,386.664z M406.463,331.075
					c0,0-8.627-31.66-19.38-28.17c-11.191,3.633,1.251,19.48,7.482,27.116c13.295,16.294,17.487,18.036,15.81,12.891
					L406.463,331.075z M396.995,345.404c0,0-14.749-29.314-24.592-23.756c-10.246,5.785,5.099,18.842,12.723,25.088
					c16.268,13.326,20.724,14.201,18.057,9.491L396.995,345.404z M388.54,363.047c0,0-13.15-24.448-21.346-19.521
					c-8.531,5.129,4.748,15.816,11.34,20.922c14.066,10.893,17.854,11.529,15.49,7.608L388.54,363.047z M380.37,376.325
					c0,0-10.481-25.706-19.154-21.676c-9.027,4.195,3.042,16.231,9.055,22.007c12.83,12.325,16.529,13.359,14.595,9.21
					L380.37,376.325z M424.412,311.933c0,0,19.031-33.743,4.97-39.09c-14.635-5.565-15.856,17.618-16.204,28.972
					c-0.743,24.226,2.01,28.963,4.822,23.266L424.412,311.933z"/>
				
					<path style="fill:none;stroke:#CCCCCC;stroke-width:1.252;stroke-linecap:round;stroke-linejoin:round;stroke-miterlimit:10;" d="
					M423.556,285.9c0,0-6.479,46.565-15.008,64.155c-9.799,20.209-23.792,40.561-37.372,54.615"/>
				
					<line style="fill:none;stroke:#CCCCCC;stroke-width:1.252;stroke-linecap:round;stroke-linejoin:round;stroke-miterlimit:10;" x1="413.242" y1="337.639" x2="441.521" y2="317.15"/>
				
					<line style="fill:none;stroke:#CCCCCC;stroke-width:1.252;stroke-linecap:round;stroke-linejoin:round;stroke-miterlimit:10;" x1="408.547" y1="350.055" x2="440.127" y2="341.286"/>
				
					<line style="fill:none;stroke:#CCCCCC;stroke-width:1.252;stroke-linecap:round;stroke-linejoin:round;stroke-miterlimit:10;" x1="410.234" y1="345.515" x2="393.622" y2="318.114"/>
				
					<line style="fill:none;stroke:#CCCCCC;stroke-width:1.252;stroke-linecap:round;stroke-linejoin:round;stroke-miterlimit:10;" x1="400.406" y1="365.61" x2="428.382" y2="364.895"/>
				
					<line style="fill:none;stroke:#CCCCCC;stroke-width:1.252;stroke-linecap:round;stroke-linejoin:round;stroke-miterlimit:10;" x1="403.744" y1="359.013" x2="387.808" y2="341.465"/>
				
					<line style="fill:none;stroke:#CCCCCC;stroke-width:1.252;stroke-linecap:round;stroke-linejoin:round;stroke-miterlimit:10;" x1="394.201" y1="374.044" x2="381.336" y2="361.181"/>
				
					<line style="fill:none;stroke:#CCCCCC;stroke-width:1.252;stroke-linecap:round;stroke-linejoin:round;stroke-miterlimit:10;" x1="388.67" y1="384.241" x2="404.807" y2="382.584"/>
				
					<line style="fill:none;stroke:#CCCCCC;stroke-width:1.252;stroke-linecap:round;stroke-linejoin:round;stroke-miterlimit:10;" x1="385.609" y1="388.038" x2="371.956" y2="371.705"/>
			</g>
		</g>
	</g>
	<g>
		<g>
			<g>
				<path style="fill:#8b3dff;" d="M124.666,110.399c-2.425,5.983-4.911,1.172-4.517-23.911
					c0.184-11.755,1.012-35.775,14.013-30.489c12.492,5.079-3.969,40.594-3.969,40.594L124.666,110.399z M142.522,113.956
					c0,0,27.103-28.243,16.938-37.104c-10.58-9.223-19.164,13.227-23.156,24.285c-8.518,23.595-7.73,28.953-3.493,24.082
					L142.522,113.956z M148.237,139.303c0,0,24.814-17.666,18.326-25.914c-6.752-8.584-16.568,7.336-21.223,15.212
					c-9.932,16.805-10.105,21.016-6.161,17.906L148.237,139.303z M154.954,164.575c0,0,24.814-17.666,18.327-25.913
					c-6.753-8.584-16.568,7.335-21.223,15.211c-9.932,16.806-10.105,21.016-6.161,17.906L154.954,164.575z M111.619,113.765
					c0,0-34.722-18.073-40.369-5.827c-5.878,12.745,18.079,14.674,29.814,15.397c25.038,1.544,29.959-0.719,24.093-3.416
					L111.619,113.765z M116.509,133.66c0,0-37.622-10.81-40.722,2.313c-3.227,13.66,20.635,10.787,32.279,9.164
					c24.846-3.464,29.218-6.66,22.934-8.137L116.509,133.66z M125.12,155.351c0,0-32.065-8.271-34.383,2.898
					c-2.413,11.626,17.7,8.645,27.509,7.003c20.931-3.504,24.555-6.308,19.206-7.411L125.12,155.351z M130.139,173.257
					c0,0-31.006-11.628-34.497-0.767c-3.633,11.304,16.682,10.475,26.611,9.883c21.184-1.263,25.085-3.666,19.884-5.331
					L130.139,173.257z M109.38,82.543c0,0-14.156-43.99-30.223-36c-16.723,8.317,2.599,28.155,12.264,37.651
					c20.623,20.263,27.002,21.686,24.287,14.611L109.38,82.543z"/>
				<path style="opacity:0.65;fill:#E5E5E5;" d="M124.666,110.399c-2.425,5.983-4.911,1.172-4.517-23.911
					c0.184-11.755,1.012-35.775,14.013-30.489c12.492,5.079-3.969,40.594-3.969,40.594L124.666,110.399z M142.522,113.956
					c0,0,27.103-28.243,16.938-37.104c-10.58-9.223-19.164,13.227-23.156,24.285c-8.518,23.595-7.73,28.953-3.493,24.082
					L142.522,113.956z M148.237,139.303c0,0,24.814-17.666,18.326-25.914c-6.752-8.584-16.568,7.336-21.223,15.212
					c-9.932,16.805-10.105,21.016-6.161,17.906L148.237,139.303z M154.954,164.575c0,0,24.814-17.666,18.327-25.913
					c-6.753-8.584-16.568,7.335-21.223,15.211c-9.932,16.806-10.105,21.016-6.161,17.906L154.954,164.575z M111.619,113.765
					c0,0-34.722-18.073-40.369-5.827c-5.878,12.745,18.079,14.674,29.814,15.397c25.038,1.544,29.959-0.719,24.093-3.416
					L111.619,113.765z M116.509,133.66c0,0-37.622-10.81-40.722,2.313c-3.227,13.66,20.635,10.787,32.279,9.164
					c24.846-3.464,29.218-6.66,22.934-8.137L116.509,133.66z M125.12,155.351c0,0-32.065-8.271-34.383,2.898
					c-2.413,11.626,17.7,8.645,27.509,7.003c20.931-3.504,24.555-6.308,19.206-7.411L125.12,155.351z M130.139,173.257
					c0,0-31.006-11.628-34.497-0.767c-3.633,11.304,16.682,10.475,26.611,9.883c21.184-1.263,25.085-3.666,19.884-5.331
					L130.139,173.257z M109.38,82.543c0,0-14.156-43.99-30.223-36c-16.723,8.317,2.599,28.155,12.264,37.651
					c20.623,20.263,27.002,21.686,24.287,14.611L109.38,82.543z"/>
				
					<path style="fill:none;stroke:#CCCCCC;stroke-width:1.252;stroke-linecap:round;stroke-linejoin:round;stroke-miterlimit:10;" d="
					M85.879,62.218c0,0,35.55,43.373,44.056,65.086c9.772,24.946,16.275,53.681,17.594,76.956"/>
				
					<line style="fill:none;stroke:#CCCCCC;stroke-width:1.252;stroke-linecap:round;stroke-linejoin:round;stroke-miterlimit:10;" x1="122.858" y1="113.139" x2="127.802" y2="71.777"/>
				
					<line style="fill:none;stroke:#CCCCCC;stroke-width:1.252;stroke-linecap:round;stroke-linejoin:round;stroke-miterlimit:10;" x1="129.935" y1="127.304" x2="147.819" y2="92.538"/>
				
					<line style="fill:none;stroke:#CCCCCC;stroke-width:1.252;stroke-linecap:round;stroke-linejoin:round;stroke-miterlimit:10;" x1="127.324" y1="122.151" x2="89.869" y2="114.522"/>
				
					<line style="fill:none;stroke:#CCCCCC;stroke-width:1.252;stroke-linecap:round;stroke-linejoin:round;stroke-miterlimit:10;" x1="136.972" y1="147.029" x2="158.994" y2="121.94"/>
				
					<line style="fill:none;stroke:#CCCCCC;stroke-width:1.252;stroke-linecap:round;stroke-linejoin:round;stroke-miterlimit:10;" x1="133.895" y1="138.765" x2="105.619" y2="138.52"/>
				
					<line style="fill:none;stroke:#CCCCCC;stroke-width:1.252;stroke-linecap:round;stroke-linejoin:round;stroke-miterlimit:10;" x1="139.337" y1="159.294" x2="117.654" y2="160.151"/>
				
					<line style="fill:none;stroke:#CCCCCC;stroke-width:1.252;stroke-linecap:round;stroke-linejoin:round;stroke-miterlimit:10;" x1="143.793" y1="172.394" x2="155.406" y2="156.915"/>
				
					<line style="fill:none;stroke:#CCCCCC;stroke-width:1.252;stroke-linecap:round;stroke-linejoin:round;stroke-miterlimit:10;" x1="144.642" y1="178.15" x2="119.279" y2="176.888"/>
			</g>
		</g>
		<g>
			<g>
				<path style="fill:#8b3dff;" d="M246.15,150.248c-4.374,1.651-3.037-2.036,10.499-14.156c6.344-5.68,19.527-17.046,23.106-7.532
					c3.438,9.141-23.544,17.842-23.544,17.842L246.15,150.248z M253.035,161.494c0,0,28.345,0.535,28.062-9.228
					c-0.295-10.161-16.455-3.692-24.3-0.38c-16.738,7.067-19.201,10.12-14.527,9.979L253.035,161.494z M242.361,176.993
					c0,0,21.594,4.516,22.792-2.989c1.247-7.811-12.046-5.207-18.523-3.812c-13.821,2.977-16.146,4.955-12.553,5.524
					L242.361,176.993z M232.22,192.988c0,0,21.594,4.516,22.792-2.989c1.247-7.811-12.046-5.208-18.523-3.812
					c-13.821,2.978-16.146,4.955-12.553,5.524L232.22,192.988z M237.947,144.962c0,0-7.453-27.353-16.743-24.338
					c-9.669,3.138,1.081,16.829,6.464,23.427c11.486,14.077,15.108,15.583,13.659,11.137L237.947,144.962z M229.768,157.342
					c0,0-12.742-25.326-21.246-20.524c-8.852,4.998,4.405,16.279,10.992,21.674c14.055,11.513,17.904,12.268,15.601,8.2
					L229.768,157.342z M222.463,172.585c0,0-11.361-21.122-18.442-16.865c-7.37,4.431,4.102,13.664,9.797,18.075
					c12.152,9.411,15.425,9.961,13.383,6.573L222.463,172.585z M215.405,184.056c0,0-9.055-22.209-16.548-18.727
					c-7.799,3.624,2.628,14.023,7.823,19.013c11.085,10.648,14.28,11.542,12.609,7.957L215.405,184.056z M253.454,128.424
					c0,0,16.442-29.152,4.294-33.772c-12.644-4.808-13.699,15.221-13.999,25.03c-0.642,20.93,1.737,25.022,4.166,20.101
					L253.454,128.424z"/>
				<path style="opacity:0.65;fill:#FFFFFF;" d="M246.15,150.248c-4.374,1.651-3.037-2.036,10.499-14.156
					c6.344-5.68,19.527-17.046,23.106-7.532c3.438,9.141-23.544,17.842-23.544,17.842L246.15,150.248z M253.035,161.494
					c0,0,28.345,0.535,28.062-9.228c-0.295-10.161-16.455-3.692-24.3-0.38c-16.738,7.067-19.201,10.12-14.527,9.979L253.035,161.494
					z M242.361,176.993c0,0,21.594,4.516,22.792-2.989c1.247-7.811-12.046-5.207-18.523-3.812
					c-13.821,2.977-16.146,4.955-12.553,5.524L242.361,176.993z M232.22,192.988c0,0,21.594,4.516,22.792-2.989
					c1.247-7.811-12.046-5.208-18.523-3.812c-13.821,2.978-16.146,4.955-12.553,5.524L232.22,192.988z M237.947,144.962
					c0,0-7.453-27.353-16.743-24.338c-9.669,3.138,1.081,16.829,6.464,23.427c11.486,14.077,15.108,15.583,13.659,11.137
					L237.947,144.962z M229.768,157.342c0,0-12.742-25.326-21.246-20.524c-8.852,4.998,4.405,16.279,10.992,21.674
					c14.055,11.513,17.904,12.268,15.601,8.2L229.768,157.342z M222.463,172.585c0,0-11.361-21.122-18.442-16.865
					c-7.37,4.431,4.102,13.664,9.797,18.075c12.152,9.411,15.425,9.961,13.383,6.573L222.463,172.585z M215.405,184.056
					c0,0-9.055-22.209-16.548-18.727c-7.799,3.624,2.628,14.023,7.823,19.013c11.085,10.648,14.28,11.542,12.609,7.957
					L215.405,184.056z M253.454,128.424c0,0,16.442-29.152,4.294-33.772c-12.644-4.808-13.699,15.221-13.999,25.03
					c-0.642,20.93,1.737,25.022,4.166,20.101L253.454,128.424z"/>
				
					<path style="fill:none;stroke:#CCCCCC;stroke-width:1.252;stroke-linecap:round;stroke-linejoin:round;stroke-miterlimit:10;" d="
					M252.714,105.933c0,0-5.597,40.229-12.966,55.427c-8.466,17.46-20.555,35.043-32.287,47.185"/>
				
					<line style="fill:none;stroke:#CCCCCC;stroke-width:1.252;stroke-linecap:round;stroke-linejoin:round;stroke-miterlimit:10;" x1="243.804" y1="150.633" x2="268.236" y2="132.932"/>
				
					<line style="fill:none;stroke:#CCCCCC;stroke-width:1.252;stroke-linecap:round;stroke-linejoin:round;stroke-miterlimit:10;" x1="239.748" y1="161.36" x2="267.032" y2="153.784"/>
				
					<line style="fill:none;stroke:#CCCCCC;stroke-width:1.252;stroke-linecap:round;stroke-linejoin:round;stroke-miterlimit:10;" x1="241.206" y1="157.438" x2="226.854" y2="133.764"/>
				
					<line style="fill:none;stroke:#CCCCCC;stroke-width:1.252;stroke-linecap:round;stroke-linejoin:round;stroke-miterlimit:10;" x1="232.714" y1="174.798" x2="256.885" y2="174.18"/>
				
					<line style="fill:none;stroke:#CCCCCC;stroke-width:1.252;stroke-linecap:round;stroke-linejoin:round;stroke-miterlimit:10;" x1="235.598" y1="169.099" x2="221.83" y2="153.939"/>
				
					<line style="fill:none;stroke:#CCCCCC;stroke-width:1.252;stroke-linecap:round;stroke-linejoin:round;stroke-miterlimit:10;" x1="227.354" y1="182.085" x2="216.239" y2="170.972"/>
				
					<line style="fill:none;stroke:#CCCCCC;stroke-width:1.252;stroke-linecap:round;stroke-linejoin:round;stroke-miterlimit:10;" x1="222.575" y1="190.895" x2="236.517" y2="189.463"/>
				
					<line style="fill:none;stroke:#CCCCCC;stroke-width:1.252;stroke-linecap:round;stroke-linejoin:round;stroke-miterlimit:10;" x1="219.931" y1="194.175" x2="208.135" y2="180.064"/>
			</g>
		</g>
	</g>
</g>
<g id="Character_2">
	<g>
		<g>
			<g id="XMLID_1_">
				<path style="fill:#263238;" d="M263.543,296.886H100.749c-2.235,0-4.046,1.812-4.046,4.046v78.159
					c0,2.235,1.811,4.046,4.046,4.046h146.193l20.648,23.764v-27.81v-18.514v-59.645
					C267.589,298.698,265.778,296.886,263.543,296.886z"/>
				<path id="XMLID_4_" style="fill:#FFFFFF;" d="M208.002,341.589c0-4.89,3.964-8.853,8.853-8.853c4.89,0,8.854,3.964,8.854,8.853
					s-3.964,8.854-8.854,8.854C211.966,350.443,208.002,346.478,208.002,341.589z"/>
				<path id="XMLID_3_" style="fill:#FFFFFF;" d="M170.059,341.589c0-4.89,3.964-8.853,8.854-8.853c4.89,0,8.853,3.964,8.853,8.853
					s-3.964,8.854-8.853,8.854C174.023,350.443,170.059,346.478,170.059,341.589z"/>
				<path id="XMLID_2_" style="fill:#FFFFFF;" d="M132.116,341.589c0-4.89,3.964-8.853,8.854-8.853s8.853,3.964,8.853,8.853
					s-3.964,8.854-8.853,8.854S132.116,346.478,132.116,341.589z"/>
			</g>
			<g>
				<g>
					<path style="fill:#263238;stroke:#263238;stroke-linecap:round;stroke-linejoin:round;stroke-miterlimit:10;" d="
						M353.628,229.235c0,0,1.36-5.665-1.133-9.97c-2.493-4.305-4.532-1.36-6.345-0.453c-1.813,0.906-5.212-2.039-6.571-0.227
						c-1.36,1.813,0.227,3.172-0.453,4.305c-0.68,1.133-5.438-0.227-6.118,2.946c-0.68,3.172,2.946,3.172,1.586,4.758
						c-1.359,1.586-4.532,2.039-2.946,4.985c1.586,2.946,4.305,2.266,4.305,3.399c0,1.133-2.946,3.399-1.133,5.665
						c1.813,2.266,4.305,0.68,4.985,1.813c0.68,1.133,1.586,4.305,2.946,4.985c1.36,0.68,4.758-0.227,7.931-5.891
						C353.855,239.885,353.628,229.235,353.628,229.235z"/>
					<path style="fill:#FFFFFF;stroke:#263238;stroke-linecap:round;stroke-linejoin:round;stroke-miterlimit:10;" d="
						M384.499,273.566c-0.73,1.569-6.844,5.767-6.844,5.767s-0.003-1.376,0.435-2.042c0.438-0.666,0.753-1.321,0.966-1.716
						c0.213-0.395-0.196-2.108-1.033-3.031c-0.836-0.923-1.497,1.391-1.854,2.925c-0.357,1.534-2.766,3.885-2.662,5.002
						c0.104,1.116,0.815,3.908,0.815,3.908s-3.683,3.058-6.784,5.644c-2.149,1.792-8.311,4.951-8.311,4.951
						s-0.381-1.844-2.726-6.847c-2.346-5.003-7.937-13.463-7.937-13.463c-2.402,3.357-0.51,7.984,0.859,13.704
						c1.368,5.72,7.061,17.512,7.061,17.512s4.083-1.007,9.158-4.821c5.075-3.814,11.83-14.259,11.83-14.259
						s2.047-0.884,4.469-1.736s2.105-1.572,2.506-3.986c0.401-2.414,2.468-5.734,2.353-6.975
						C386.685,272.862,385.229,271.997,384.499,273.566z"/>
					<path style="fill:#FFFFFF;stroke:#263238;stroke-linecap:round;stroke-linejoin:round;stroke-miterlimit:10;" d="
						M344.792,245.55c0,0-1.34,8.366-2.473,12.672c-1.133,4.305-2.516,4.073-2.516,4.073s-4.528-2.469-9.286-2.016
						c-4.758,0.453-10.197,5.665-7.931,17.448c2.266,11.783,9.743,23.112,9.743,23.112l-3.852,14.275c0,0-3.716,12.026-6.661,23.129
						c-2.946,11.103-7.048,27.848-8.861,31.247c-1.813,3.399-8.624,7.957-14.062,18.38c-5.438,10.423-13.015,29.89-13.015,29.89
						l2.039,2.266c0,0,23.792-26.511,29.91-32.856c6.118-6.345,16.088-22.886,18.807-32.629c2.719-9.743,7.423-16.478,7.423-16.478
						s3.454,20.104,1.641,25.769c-1.813,5.665-4.985,15.408-4.758,22.433c0.227,7.024,4.758,33.762,4.758,33.762l4.079,0.227
						c0,0,4.079-19.26,7.478-37.161c3.399-17.901,5.212-25.605,5.212-43.959c0-18.354-6.118-39.654-7.477-42.599
						c-1.36-2.946-1.586-3.625-1.586-3.625s3.172-4.079,3.172-7.704s-4.079-9.97-4.079-9.97s1.813-3.625,0.227-6.571
						c-1.586-2.946-3.815-3.852-3.815-3.852l1.549-7.931L344.792,245.55z"/>
					<g>
						<path style="fill:#263238;stroke:#263238;stroke-linecap:round;stroke-linejoin:round;stroke-miterlimit:10;" d="
							M330.536,307.483l-2.059,7.631c0,0-3.716,12.026-6.661,23.129c-2.946,11.103-7.048,27.848-8.861,31.247
							c-1.813,3.399-8.624,7.957-14.062,18.38c-5.438,10.423-13.015,29.89-13.015,29.89l2.039,2.266c0,0,23.792-26.511,29.91-32.856
							c6.118-6.345,16.088-22.886,18.807-32.629c2.719-9.743,7.423-16.478,7.423-16.478s3.454,20.104,1.641,25.769
							c-1.813,5.665-4.985,15.408-4.758,22.432c0.227,7.024,4.758,33.762,4.758,33.762l4.079,0.227c0,0,4.079-19.26,7.478-37.161
							c3.399-17.901,5.212-25.605,5.212-43.959c0-12.07-2.646-25.413-4.844-33.973C343.32,308.245,335.163,308.289,330.536,307.483z
							"/>
						
							<line style="fill:none;stroke:#FFFFFF;stroke-width:0.75;stroke-linecap:round;stroke-linejoin:round;stroke-miterlimit:10;" x1="344.955" y1="338.059" x2="352.617" y2="328.354"/>
					</g>
					<g>
						<path style="fill:#FFFFFF;stroke:#263238;stroke-linecap:round;stroke-linejoin:round;stroke-miterlimit:10;" d="
							M352.496,227.876c0,0-7.024,0.453-8.157,9.97c-1.133,9.517,0.68,21.753,7.024,23.339c6.345,1.586,13.369-9.064,14.049-18.127
							C366.091,233.994,360.426,226.063,352.496,227.876z"/>
					</g>
					<path style="fill:#263238;" d="M361.447,250.361c0,0.748-0.327,1.355-0.73,1.355c-0.403,0-0.73-0.607-0.73-1.355
						c0-0.748,0.327-1.355,0.73-1.355C361.121,249.007,361.447,249.613,361.447,250.361z"/>
					<path style="fill:#263238;" d="M355.715,247.756c0,0.748-0.327,1.355-0.73,1.355c-0.403,0-0.73-0.607-0.73-1.355
						c0-0.748,0.327-1.355,0.73-1.355C355.388,246.401,355.715,247.007,355.715,247.756z"/>
					<path style="fill:#263238;stroke:#263238;stroke-linecap:round;stroke-linejoin:round;stroke-miterlimit:10;" d="
						M364.441,235.511c-1.918-5.365-6.37-8.909-11.946-7.635c0,0-7.024,0.453-8.157,9.97c-0.262,2.205-0.365,4.556-0.291,6.887
						l0.064,0.137c0,0-0.925-2.667,8.138-3.12C355.241,241.6,362.735,235.049,364.441,235.511z"/>
					<path style="fill:#263238;stroke:#263238;stroke-linecap:round;stroke-linejoin:round;stroke-miterlimit:10;" d="
						M359.562,235.376c0,0,3.961-4.795,7.296-1.876c3.335,2.918-2.71,9.38-1.459,11.257s4.794-0.417,4.794-0.417
						s-1.876,3.961-4.378,3.961c-2.501,0-5.628-3.335-5.628-6.671C360.188,238.295,359.562,235.376,359.562,235.376L359.562,235.376
						"/>
					<path style="fill:#FFFFFF;stroke:#263238;stroke-linecap:round;stroke-linejoin:round;stroke-miterlimit:10;" d="
						M346.378,245.097c0,0-2.946-6.571-4.305-3.172c-1.36,3.399,0.906,7.251,2.946,7.251"/>
					<path style="fill:#8b3dff;stroke:#263238;stroke-linecap:round;stroke-linejoin:round;stroke-miterlimit:10;" d="
						M354.043,277.91c-0.766-0.973-1.33-1.892-1.548-2.677c-0.693-2.495-0.961-6.002-1.066-8.354
						c-0.099-0.107-0.198-0.209-0.299-0.309c-0.516,3.632-2.112,10.204-6.793,7.53c-4.727-2.701-8.409-10.101-9.807-13.483
						c-0.823-0.335-1.36-0.174-2.26-0.296c1.604,2.772,4.879,9.076,4.363,13.552c-0.579,5.022-4.783,14.476-12.606,9.444
						c3.032,9.534,8.301,17.52,8.301,17.52l-3.513,13.018c11.306,5.435,24.992,2.73,31.008,1.08
						c-1.833-9.385-4.076-16.759-4.836-18.404c-1.36-2.946-1.586-3.625-1.586-3.625s3.172-4.079,3.172-7.704
						C356.574,283.096,355.197,280.075,354.043,277.91z"/>
					
						<path style="fill:none;stroke:#263238;stroke-width:0.75;stroke-linecap:round;stroke-linejoin:round;stroke-miterlimit:10;" d="
						M348.788,283.086c0.315-0.76,0.618-1.528,0.904-2.302"/>
					
						<path style="fill:none;stroke:#263238;stroke-width:0.75;stroke-linecap:round;stroke-linejoin:round;stroke-miterlimit:10;" d="
						M336.501,303.897c0,0,6.589-8.237,11.289-18.522"/>
					
						<path style="fill:none;stroke:#263238;stroke-width:0.75;stroke-linecap:round;stroke-linejoin:round;stroke-miterlimit:10;" d="
						M338.316,304.236c0,0,3.014-2.782,7.882-7.187"/>
					
						<line style="fill:none;stroke:#263238;stroke-width:0.75;stroke-linecap:round;stroke-linejoin:round;stroke-miterlimit:10;" x1="342.72" y1="303.077" x2="351.762" y2="296.817"/>
					<g>
						<path style="fill:#FFFFFF;stroke:#263238;stroke-linecap:round;stroke-linejoin:round;stroke-miterlimit:10;" d="
							M332.782,261.864c0,0-2.719-2.493-8.611,1.586c-5.891,4.079-23.339,16.088-24.019,18.581
							c-0.68,2.492,26.058,27.191,28.097,28.551c2.039,1.359,4.985-0.453,4.985-0.453s8.227,0.998,8.68,0.091
							c0.453-0.906-3.148-5.19-5.414-6.323c-2.266-1.133-7.704,2.039-7.704,2.039s-10.97-12.349-13.236-16.654
							c-2.266-4.305-3.172-5.438-3.172-5.438l18.127-10.423"/>
						
							<polyline style="fill:none;stroke:#263238;stroke-width:0.75;stroke-linecap:round;stroke-linejoin:round;stroke-miterlimit:10;" points="
							332.417,307.995 335,307.75 339.75,310 						"/>
						
							<path style="fill:none;stroke:#263238;stroke-width:0.75;stroke-linecap:round;stroke-linejoin:round;stroke-miterlimit:10;" d="
							M332.5,306.25c0,0,2.5-0.75,3.75,0s4.5,2.5,4.5,2.5"/>
						
							<path style="fill:none;stroke:#263238;stroke-width:0.75;stroke-linecap:round;stroke-linejoin:round;stroke-miterlimit:10;" d="
							M333.163,304.796c0,0,2.666-0.427,3.733,0c1.066,0.427,2.986,2.133,2.986,2.133"/>
					</g>
					
						<line style="fill:none;stroke:#263238;stroke-linecap:round;stroke-linejoin:round;stroke-miterlimit:10;" x1="327.57" y1="275.233" x2="333.009" y2="275.233"/>
					<path style="fill:#263238;" d="M381.992,267.785l-5.505,12.937c-0.198,0.466-0.157,0.999,0.111,1.429l0.921,1.481
						c0.649,1.043,2.194,0.956,2.722-0.152l6.149-12.902c0.287-0.602,0.158-1.321-0.322-1.785l-1.566-1.516
						C383.719,266.518,382.419,266.781,381.992,267.785z"/>
					<path style="fill:#FFFFFF;stroke:#263238;stroke-linecap:round;stroke-linejoin:round;stroke-miterlimit:10;" d="
						M374.794,286.229c0,0,0.908-2.336,2.576-3.242c1.667-0.906,4.249-1.397,4.249-1.397s1.511-5.27,2.212-4.459
						c0.701,0.81,0.42,4.869,0.42,4.869"/>
					<path style="fill:none;stroke:#263238;stroke-linecap:round;stroke-linejoin:round;stroke-miterlimit:10;" d="M386.544,275.377
						c0,0-0.961-0.911-1.884-0.075c-0.923,0.837-2.327,3.219-3.836,4.486"/>
					<path style="fill:#FFFFFF;stroke:#263238;stroke-linecap:round;stroke-linejoin:round;stroke-miterlimit:10;" d="
						M285.878,417.76c0,0-8.214,4.365-11.159,8.648c-2.945,4.283-0.535,6.693,5.087,4.819c5.622-1.874,8.111-11.201,8.111-11.201
						L285.878,417.76z"/>
					<path style="fill:#FFFFFF;stroke:#263238;stroke-linecap:round;stroke-linejoin:round;stroke-miterlimit:10;" d="
						M345.698,420.026c0,0,0.501,6.382,2.91,8.792c2.409,2.409,10.441,5.89,10.976,2.945c0.535-2.945-8.835-9.905-8.835-9.905
						l-0.973-1.604l-3.042-0.27L345.698,420.026z"/>
				</g>
				<g>
					<path style="fill:none;stroke:#263238;stroke-linecap:round;stroke-linejoin:round;stroke-miterlimit:10;" d="M360.577,247.083
						c0,0-1.595,0.456-2.278,2.619s-0.456,3.872-0.456,3.872l-3.189-0.455"/>
					<path style="fill:none;stroke:#263238;stroke-linecap:round;stroke-linejoin:round;stroke-miterlimit:10;" d="M351.238,253.916
						c0,0,0.683,2.164,2.961,2.392"/>
					<path style="fill:none;stroke:#263238;stroke-linecap:round;stroke-linejoin:round;stroke-miterlimit:10;" d="M353.516,244.35
						c0,0,2.619-1.822,4.897-0.114"/>
					<path style="fill:none;stroke:#263238;stroke-linecap:round;stroke-linejoin:round;stroke-miterlimit:10;" d="M360.577,247.083
						c0,0,3.303-1.367,3.303,1.139"/>
				</g>
			</g>
		</g>
	</g>
</g>
<g id="Character_1">
	<g>
		<g>
			<g id="XMLID_5_">
				<path style="fill:#8b3dff;stroke:#263238;stroke-miterlimit:10;" d="M263.543,173.859H100.749c-2.234,0-4.046,1.811-4.046,4.046
					v59.645v18.514v27.81l20.648-23.764h146.193c2.235,0,4.046-1.811,4.046-4.046v-78.159
					C267.589,175.671,265.778,173.859,263.543,173.859z"/>
				<path id="XMLID_8_" style="fill:#FFFFFF;stroke:#263238;stroke-miterlimit:10;" d="M156.29,218.562
					c0-4.89-3.964-8.853-8.853-8.853c-4.89,0-8.854,3.964-8.854,8.853c0,4.89,3.964,8.854,8.854,8.854
					C152.327,227.415,156.29,223.451,156.29,218.562z"/>
				<path id="XMLID_7_" style="fill:#FFFFFF;stroke:#263238;stroke-miterlimit:10;" d="M194.233,218.562
					c0-4.89-3.964-8.853-8.854-8.853c-4.89,0-8.853,3.964-8.853,8.853c0,4.89,3.964,8.854,8.853,8.854
					C190.27,227.415,194.233,223.451,194.233,218.562z"/>
				<path id="XMLID_6_" style="fill:#FFFFFF;stroke:#263238;stroke-miterlimit:10;" d="M232.176,218.562
					c0-4.89-3.964-8.853-8.854-8.853c-4.89,0-8.853,3.964-8.853,8.853c0,4.89,3.964,8.854,8.853,8.854
					C228.212,227.415,232.176,223.451,232.176,218.562z"/>
			</g>
			<g>
				<path style="fill:#FFFFFF;stroke:#263238;stroke-linecap:round;stroke-linejoin:round;stroke-miterlimit:10;" d="
					M144.576,130.883l-4.707,10.899c-0.697,1.251-0.149,2.831,1.173,3.382l2.873,1.26c2.687,0.358,5.256-1.978,5.912-2.866
					l5.841-7.129L144.576,130.883z"/>
				<polygon style="fill:#8b3dff;stroke:#263238;stroke-linecap:round;stroke-linejoin:round;stroke-miterlimit:10;" points="
					178.11,99.096 157.919,107.201 157.919,166.288 201.54,166.288 201.54,108.268 182.492,98.669 				"/>
				<path style="fill:#FFFFFF;stroke:#263238;stroke-linecap:round;stroke-linejoin:round;stroke-miterlimit:10;" d="
					M191.923,105.822c-1.246-1.424-1.246-7.121-1.246-7.121l-5.163-1.602l-4.362,0.485l-4.362-0.485l-5.163,1.602
					c0,0,0,5.697-1.246,7.121c-1.246,1.424-4.095,4.273-4.095,4.273s0.712,0.89,3.027-1.602c2.314-2.493,4.451-3.383,4.451-3.383
					s0,1.958,0.89,2.849c0.762,0.762,5.097,3.302,6.329,4.018l0.004,0.194c0,0,0.068-0.039,0.166-0.096
					c0.098,0.057,0.166,0.096,0.166,0.096l0.004-0.194c1.232-0.715,5.566-3.255,6.329-4.018c0.89-0.89,0.89-2.849,0.89-2.849
					s2.136,0.89,4.451,3.383s3.027,1.602,3.027,1.602S193.169,107.246,191.923,105.822z"/>
				<polygon style="fill:#FFFFFF;stroke:#263238;stroke-linecap:round;stroke-linejoin:round;stroke-miterlimit:10;" points="
					175.857,95.204 175.857,102.029 181.317,112.17 186.388,102.419 186.388,95.399 				"/>
				<g>
					<path style="fill:#FFFFFF;stroke:#263238;stroke-linecap:round;stroke-linejoin:round;stroke-miterlimit:10;" d="
						M171.176,83.892c0,0-1.17-4.876-2.34-2.535c-1.17,2.34,2.34,7.216,2.34,7.216V83.892z"/>
					<path style="fill:#FFFFFF;stroke:#263238;stroke-linecap:round;stroke-linejoin:round;stroke-miterlimit:10;" d="
						M191.068,83.697c0,0,2.73-3.315,3.12-1.17c0.39,2.145-2.73,6.046-2.73,6.046L191.068,83.697z"/>
					<g>
						<path style="fill:#FFFFFF;stroke:#263238;stroke-linecap:round;stroke-linejoin:round;stroke-miterlimit:10;" d="
							M181.317,98.714L181.317,98.714c-5.601,0-10.141-4.54-10.141-10.141V68.291h20.282v20.282
							C191.458,94.174,186.918,98.714,181.317,98.714z"/>
						<g>
							<path style="fill:#FFFFFF;stroke:#263238;stroke-linecap:round;stroke-linejoin:round;stroke-miterlimit:10;" d="
								M174.847,84.282c0,0,1.543,1.851,4.217,0"/>
							<path style="fill:#FFFFFF;stroke:#263238;stroke-linecap:round;stroke-linejoin:round;stroke-miterlimit:10;" d="
								M183.28,84.282c0,0,1.543,1.851,4.217,0"/>
							<path style="fill:none;stroke:#263238;stroke-linecap:round;stroke-linejoin:round;stroke-miterlimit:10;" d="
								M174.588,81.217c0,0,1.542-2.827,4.883-0.685"/>
							<path style="fill:none;stroke:#263238;stroke-linecap:round;stroke-linejoin:round;stroke-miterlimit:10;" d="
								M182.469,80.618c0,0,0.514-1.199,2.827-1.199s2.741,1.885,2.741,1.885"/>
							<polyline style="fill:none;stroke:#263238;stroke-linecap:round;stroke-linejoin:round;stroke-miterlimit:10;" points="
								179.471,89.783 181.098,90.725 182.554,89.869 							"/>
							<path style="fill:none;stroke:#263238;stroke-linecap:round;stroke-linejoin:round;stroke-miterlimit:10;" d="
								M177.244,91.154c0,0,0.6,0.856,1.97,1.113"/>
						</g>
					</g>
					<path style="fill:#263238;stroke:#263238;stroke-linecap:round;stroke-linejoin:round;stroke-miterlimit:10;" d="
						M190.678,75.117l0.39,8.581c0,0,0.195,1.17,0.585-1.17c0.39-2.34,2.34-8.776,1.95-10.726c-0.39-1.95-3.12-1.95-4.29-1.365
						C188.143,71.021,190.678,75.117,190.678,75.117z"/>
					<path style="fill:#263238;stroke:#263238;stroke-linecap:round;stroke-linejoin:round;stroke-miterlimit:10;" d="
						M171.176,81.357c0,0-1.17-8.971-1.755-13.651c-0.585-4.681,5.656-5.071,5.656-5.071s4.29-3.51,12.481-4.485
						c8.191-0.975,12.091,1.95,11.896,4.095c-0.195,2.145-4.876,3.705-4.876,3.705s5.656,0.585,2.34,3.705
						c-3.315,3.12-6.436,2.925-6.436,2.925s2.925,1.365,1.17,2.34c-1.755,0.975-14.236-2.73-14.236-2.73s0.39,2.34-1.365,2.925
						c-1.755,0.585-2.34,0.39-2.535,1.365c-0.195,0.975-0.195,6.826-1.17,7.411C171.371,84.478,171.176,81.357,171.176,81.357z"/>
				</g>
				<polygon style="fill:#FFFFFF;stroke:#263238;stroke-linecap:round;stroke-linejoin:round;stroke-miterlimit:10;" points="
					157.805,107.451 142.148,133.047 156.227,138.807 157.805,130.702 				"/>
				<path style="fill:#FFFFFF;stroke:#263238;stroke-linecap:round;stroke-linejoin:round;stroke-miterlimit:10;" d="
					M217.656,131.732l4.238,7.606c0.697,1.251,0.149,2.831-1.173,3.382l-6.021,2.509c-1.02,0.425-2.197,0.099-2.853-0.79
					l-5.283-7.161L217.656,131.732z"/>
				<polygon style="fill:#FFFFFF;stroke:#263238;stroke-linecap:round;stroke-linejoin:round;stroke-miterlimit:10;" points="
					201.54,108.268 219.362,132.158 205.497,138.558 201.54,131.778 				"/>
				<g>
					<g>
						<path style="fill:#FFFFFF;stroke:#263238;stroke-linecap:round;stroke-linejoin:round;stroke-miterlimit:10;" d="
							M139.487,141.868c0.556-1.742,1.256-2.957,7.406-5.644c6.15-2.687,15.234-5.38,17.84-8.122
							c0.009-0.009,0.016-0.016,0.025-0.025c0.438-0.884,8.408-9.121,8.408-9.121s2.837-0.475,3.354-0.649
							c0.518-0.174,3.194,0.079,3.928,0.337c0.734,0.257,0.8,0.667,0.498,0.84c-0.302,0.173-2.438,0.459-2.438,0.459
							s-0.095,0.048-0.25,0.126c0.973,0.712,2.671,2.625,2.757,2.883c0.094,0.28,0.312,0.31-0.248,0.498
							c-0.559,0.188-2.334-1.083-2.334-1.083l-1.648,0.035l2.086,1.27c0,0,1.994,1.923,1.311,2.36
							c-0.683,0.437-0.901,0.406-1.026,0.033c-0.125-0.373-1.464-1.271-1.464-1.271l-2.799-0.305c0,0,2.086,1.27,2.553,1.735
							c0.467,0.465,1.091,1.397,1.091,1.397s-0.247,0.809-1.15,0.282c-0.903-0.527-2.366-1.487-2.366-1.487l-1.213-0.215
							c0,0-2.946,3.271-4.033,4.05c-0.435,0.312-1.244,0.549-2.058,0.723l-0.027,0.074c0,0-4.836,6.291-11.2,10.813
							c-6.363,4.522-11.023,6.398-13.138,5.967C141.24,147.399,138.931,143.611,139.487,141.868z"/>
					</g>
					
						<line style="fill:none;stroke:#263238;stroke-width:0.75;stroke-linecap:round;stroke-linejoin:round;stroke-miterlimit:10;" x1="176.787" y1="122.402" x2="173.329" y2="121.803"/>
					
						<line style="fill:none;stroke:#263238;stroke-width:0.75;stroke-linecap:round;stroke-linejoin:round;stroke-miterlimit:10;" x1="174.895" y1="124.489" x2="172.652" y2="124.199"/>
					
						<line style="fill:none;stroke:#263238;stroke-width:0.75;stroke-linecap:round;stroke-linejoin:round;stroke-miterlimit:10;" x1="178.259" y1="120.07" x2="174.432" y2="119.982"/>
				</g>
				<path style="fill:#263238;stroke:#263238;stroke-linecap:round;stroke-linejoin:round;stroke-miterlimit:10;" d="
					M186.693,179.94h-13.888c-9.665,0-17.5-7.835-17.5-17.5v-0.418h48.888v0.418C204.193,172.105,196.358,179.94,186.693,179.94z"/>
				<g>
					<path style="fill:#FFFFFF;stroke:#263238;stroke-linecap:round;stroke-linejoin:round;stroke-miterlimit:10;" d="
						M189.583,222.74c0,0,2.275,7.11,5.119,9.954s7.679,3.413,7.395-1.706c-0.284-5.119-6.826-11.092-6.826-11.092
						S189.583,220.18,189.583,222.74z"/>
					<path style="fill:#263238;stroke:#263238;stroke-linecap:round;stroke-linejoin:round;stroke-miterlimit:10;" d="
						M195.271,219.896c0,0-16.496-32.138-21.046-41.524s-9.386-19.34-13.936-21.047c-4.551-1.706-11.661,3.129-10.523,11.377
						c1.138,8.248,11.945,22.468,17.065,29.01s22.753,25.028,22.753,25.028S192.996,223.878,195.271,219.896z"/>
				</g>
				<g>
					<path style="fill:#FFFFFF;stroke:#263238;stroke-linecap:round;stroke-linejoin:round;stroke-miterlimit:10;" d="
						M166.805,222.74c0,0-2.275,7.11-5.119,9.954s-7.679,3.413-7.395-1.706c0.284-5.119,6.826-11.092,6.826-11.092
						S166.805,220.18,166.805,222.74z"/>
					<path style="fill:#263238;stroke:#263238;stroke-linecap:round;stroke-linejoin:round;stroke-miterlimit:10;" d="
						M161.117,219.896c0,0,16.496-32.138,21.047-41.524s9.386-19.34,13.936-21.047c4.551-1.706,11.661,3.129,10.523,11.377
						c-1.138,8.248-11.945,22.468-17.065,29.01s-22.753,25.028-22.753,25.028S163.392,223.878,161.117,219.896z"/>
					<path style="fill:none;stroke:#263238;stroke-linecap:round;stroke-linejoin:round;stroke-miterlimit:10;" d="M206.363,170
						c-0.535-0.848-1.668-1.417-3.674-1.818c-2.586-0.517-8.689-0.413-15.412,0.034c-1.724,3.17-3.438,6.7-5.114,10.156
						c-4.551,9.386-21.047,41.524-21.047,41.524c2.275,3.982,5.688,2.844,5.688,2.844s17.633-18.487,22.753-25.028
						C194.42,191.499,204.396,178.37,206.363,170z"/>
				</g>
				<path style="fill:#263238;" d="M184.472,142.397h-7.921c-1.052,0-1.906-0.853-1.906-1.906v-17.27
					c0-1.19,0.965-2.156,2.156-2.156h7.421c1.19,0,2.156,0.965,2.156,2.156v17.27C186.378,141.544,185.524,142.397,184.472,142.397z
					"/>
				<g>
					<g>
						<path style="fill:#FFFFFF;stroke:#263238;stroke-linecap:round;stroke-linejoin:round;stroke-miterlimit:10;" d="
							M223.344,141.124c-1.081-1.475-2.132-2.403-8.817-2.993c-6.685-0.59-16.155-0.251-19.497-2.021
							c-0.011-0.006-0.02-0.01-0.031-0.016c-0.697-0.699-10.874-5.97-10.874-5.97s-2.841,0.453-3.387,0.453
							c-0.546,0-3.003,1.092-3.617,1.57c-0.614,0.478-0.546,0.887-0.205,0.955c0.341,0.068,2.457-0.341,2.457-0.341
							s0.106,0.015,0.277,0.04c-0.696,0.985-1.696,3.339-1.696,3.611c0,0.295-0.197,0.393,0.393,0.393s1.868-1.77,1.868-1.77
							l1.573-0.492l-1.573,1.868c0,0-1.278,2.458-0.492,2.654c0.786,0.197,0.983,0.098,0.983-0.295s0.983-1.671,0.983-1.671
							l2.556-1.18c0,0-1.573,1.868-1.868,2.458c-0.295,0.59-0.59,1.671-0.59,1.671s0.492,0.688,1.18-0.098
							c0.688-0.787,1.77-2.163,1.77-2.163l1.081-0.59c0,0,3.834,2.163,5.112,2.556c0.512,0.158,1.354,0.125,2.181,0.03l0.05,0.062
							c0,0,6.587,4.424,14.059,6.685c7.472,2.261,12.486,2.556,14.354,1.475C223.443,146.925,224.426,142.599,223.344,141.124z"/>
					</g>
					
						<line style="fill:none;stroke:#263238;stroke-width:0.75;stroke-linecap:round;stroke-linejoin:round;stroke-miterlimit:10;" x1="181.788" y1="134.544" x2="184.875" y2="132.875"/>
					
						<line style="fill:none;stroke:#263238;stroke-width:0.75;stroke-linecap:round;stroke-linejoin:round;stroke-miterlimit:10;" x1="184.246" y1="135.92" x2="186.28" y2="134.931"/>
					
						<line style="fill:none;stroke:#263238;stroke-width:0.75;stroke-linecap:round;stroke-linejoin:round;stroke-miterlimit:10;" x1="179.65" y1="132.801" x2="183.25" y2="131.5"/>
				</g>
			</g>
		</g>
		<path style="fill:none;stroke:#263238;stroke-linecap:round;stroke-linejoin:round;stroke-miterlimit:10;" d="M173.021,175.896
			l-10.281,1.04l12.668,18.533l-2.961,8.802c2.675,2.993,5.755,6.34,8.561,9.356l2.846-1.97c0,0,4.12,5.779,8.267,11.011
			c1.025-0.326,2.189-1.089,3.151-2.773c0,0-16.496-32.138-21.046-41.524C173.826,177.549,173.424,176.722,173.021,175.896z"/>
		<path style="opacity:0.2;fill:#263238;" d="M210.01,173.859h-48.703l15.327,24.469c0,0-16.999,26.065-16.999,29.182
			c0,3.117,0.567,12.466,5.1,10.483c4.533-1.983,1.133-12.749,2.267-15.016c1.133-2.267,14.007-11.61,14.007-11.61
			s8.659,4.527,11.113,9.041c2.454,4.514,3.212,11.634,5.479,16.168c2.267,4.533,7.933,5.95,7.933,1.417
			s-17.849-37.681-17.849-37.681s3.966-4.533,12.749-13.883C205.107,181.452,208.161,176.975,210.01,173.859z"/>
	</g>
</g>
</svg>
